<?xml version="1.0" encoding="UTF-8" standalone="no"?>
<!DOCTYPE svg PUBLIC "-//W3C//DTD SVG 1.1//EN" "http://www.w3.org/Graphics/SVG/1.1/DTD/svg11.dtd">
<!-- Generated by Microsoft Visio, SVG Export Drawing14.vsdx.svg Page-1 -->
<svg xmlns="http://www.w3.org/2000/svg" xmlns:xlink="http://www.w3.org/1999/xlink" xmlns:ev="http://www.w3.org/2001/xml-events"
		width="11.6929in" height="8.26772in" viewBox="0 0 841.89 595.276" xml:space="preserve" color-interpolation-filters="sRGB"
		class="st23">
	<style type="text/css">
	<![CDATA[
		.st1 {fill:#73ae42;stroke:#ffffff;stroke-linecap:round;stroke-linejoin:round;stroke-width:0.5}
		.st2 {fill:#ffffff;font-family:Calibri;font-size:0.833336em;font-stretch:semi-expanded}
		.st3 {fill:#ffffff;stroke:#73ae42;stroke-linecap:round;stroke-linejoin:round;stroke-width:0.5}
		.st4 {marker-end:url(#mrkr14-21);stroke:#5592c9;stroke-linecap:round;stroke-linejoin:round;stroke-width:0.5}
		.st5 {fill:#5592c9;fill-opacity:1;stroke:#5592c9;stroke-opacity:1;stroke-width:0.16556291390728}
		.st6 {stroke:#5592c9;stroke-linecap:round;stroke-linejoin:round;stroke-width:0.5}
		.st7 {marker-start:url(#mrkr22-32);stroke:#5592c9;stroke-linecap:round;stroke-linejoin:round;stroke-width:0.5}
		.st8 {marker-end:url(#mrkr12-43);stroke:#5592c9;stroke-dasharray:3.5,2.5;stroke-linecap:round;stroke-linejoin:round;stroke-width:0.5}
		.st9 {marker-end:url(#mrkr12-43);stroke:#5592c9;stroke-linecap:round;stroke-linejoin:round;stroke-width:0.5}
		.st10 {marker-end:url(#mrkr14-21);stroke:#5592c9;stroke-dasharray:3.5,2.5;stroke-linecap:round;stroke-linejoin:round;stroke-width:0.5}
		.st11 {fill:#f2f2f2;stroke:#ffffff;stroke-linecap:round;stroke-linejoin:round;stroke-width:0.5}
		.st12 {fill:#5b9bd5;stroke:#ffffff;stroke-linecap:round;stroke-linejoin:round;stroke-width:0.5}
		.st13 {fill:#ffffff;font-family:Calibri;font-size:0.833336em}
		.st14 {fill:#ffffff;font-family:Calibri;font-size:1.00001em}
		.st15 {fill:#5b9bd5;fill-opacity:0}
		.st16 {stroke:#5b9bd5;stroke-linecap:round;stroke-linejoin:round;stroke-width:0.5;visibility:hidden}
		.st17 {fill:#5b9bd5;font-family:Calibri;font-size:0.833336em}
		.st18 {fill:#5b9bd5}
		.st19 {stroke:#5592c9;stroke-dasharray:1,0.5;stroke-linecap:butt;stroke-width:0.5}
		.st20 {fill:#73ae42}
		.st21 {stroke:#73ae42;stroke-linecap:round;stroke-linejoin:round;stroke-width:0.5}
		.st22 {fill:#ffffff;stroke:#ffffff;stroke-linecap:round;stroke-linejoin:round;stroke-width:0.5}
		.st23 {fill:none;fill-rule:evenodd;font-size:12px;overflow:visible;stroke-linecap:square;stroke-miterlimit:3}
	]]>
	</style>

	<defs id="Patterns_And_Gradients">
		<linearGradient id="grad0-6" x1="0" y1="0" x2="1" y2="0" gradientTransform="rotate(90 0.5 0.5)">
			<stop offset="0.01" stop-color="#f2f2f2" stop-opacity="1"/>
			<stop offset="0.5" stop-color="#dfdfdf" stop-opacity="1"/>
			<stop offset="1" stop-color="#f2f2f2" stop-opacity="1"/>
		</linearGradient>
	</defs>
	<defs id="Markers">
		<g id="lend14">
			<path d="M 3 -1 L 0 0 L 3 1 L 3 -1 " style="stroke-linecap:round;stroke-linejoin:round;fill:none"/>
		</g>
		<marker id="mrkr14-21" class="st5" refX="-18.12" orient="auto" markerUnits="strokeWidth" overflow="visible">
			<use xlink:href="#lend14" transform="scale(-6.04,-6.04) "/>
		</marker>
		<g id="lend22">
			<path d="M 0 0 L 2.25 -1.125 L 4.5 0 L 2.25 1.125 L 0 0 " style="stroke-linecap:round;stroke-linejoin:round;fill:none"/>
		</g>
		<marker id="mrkr22-32" class="st5" refX="26.46" orient="auto" markerUnits="strokeWidth" overflow="visible">
			<use xlink:href="#lend22" transform="scale(6.04) "/>
		</marker>
		<g id="lend12">
			<path d="M 3 1 L 0 0 L 3 -1 " style="stroke-linecap:round;stroke-linejoin:round;fill:none"/>
		</g>
		<marker id="mrkr12-43" class="st5" orient="auto" markerUnits="strokeWidth" overflow="visible">
			<use xlink:href="#lend12" transform="scale(-6.04,-6.04) "/>
		</marker>
	</defs>
	<g>
		<title>Page-1</title>
		<g id="group72-1" transform="translate(375.591,-85.0394)">
			<title>Package (expanded)</title>
			<g id="group73-2" transform="translate(0,-141.732)">
				<title>Sheet.73</title>
				<desc>PackageName</desc>
				<g id="shape74-3">
					<title>Sheet.74</title>
				</g>
				<g id="shape73-7">
					<path d="M0 595.28 L80.79 595.28 L80.79 574.02 L40.39 574.02 L0 574.02 L0 595.28 Z" class="st1"/>
					<text x="6" y="587.65" class="st2">PackageName</text>				</g>
			</g>
			<g id="group75-10">
				<title>Sheet.75</title>
				<g id="shape76-11" transform="translate(2.83465,2.83465)">
					<title>Sheet.76</title>
				</g>
				<g id="shape75-13">
					<path d="M0 595.28 L106.3 595.28 L212.6 595.28 L212.6 453.54 L106.3 453.54 L0 453.54 L0 595.28 Z" class="st3"/>
				</g>
			</g>
		</g>
		<g id="group26-15" transform="translate(85.0394,-538.583)">
			<title>Inheritance</title>
			<g id="shape26-16">
				<path d="M0 595.28 L0 666.14 L61.81 666.14" class="st4"/>
			</g>
		</g>
		<g id="group31-22" transform="translate(85.0394,-439.37)">
			<title>Association</title>
			<g id="shape31-23">
				<path d="M0 595.28 L0 666.14 L73.7 666.14" class="st6"/>
			</g>
		</g>
		<g id="group36-26" transform="translate(85.0394,-334.843)">
			<title>Aggregation</title>
			<g id="shape36-27">
				<path d="M0 608.51 L0 608.87 L0 668.98 L70.87 668.98" class="st7"/>
			</g>
		</g>
		<g id="group41-33" transform="translate(85.0394,-226.772)">
			<title>Composition</title>
			<g id="shape41-34">
				<path d="M0 595.28 L0 666.14 L73.7 666.14" class="st6"/>
			</g>
		</g>
		<g id="group46-37" transform="translate(217.913,-212.598)">
			<title>Dependency</title>
			<g id="shape46-38">
				<path d="M0 595.28 L0 666.14 L70.87 666.14" class="st8"/>
			</g>
		</g>
		<g id="group51-44" transform="translate(217.913,-340.157)">
			<title>Directed Association</title>
			<g id="shape51-45">
				<path d="M0 595.28 L0 666.14 L70.87 666.14" class="st9"/>
			</g>
		</g>
		<g id="group56-50" transform="translate(216.732,-444.685)">
			<title>Interface Realization</title>
			<g id="shape56-51">
				<path d="M0 595.28 L0 666.14 L61.81 666.14" class="st10"/>
			</g>
		</g>
		<g id="shape63-56" transform="translate(375.591,-404.22)">
			<title>Package (collapsed)</title>
			<rect x="0" y="561.26" width="113.386" height="34.0157" class="st1"/>
		</g>
		<g id="group64-58" transform="translate(375.591,-271.826)">
			<title>Enumeration</title>
			<desc>EnumName</desc>
			<g id="shape65-59">
				<title>Sheet.65</title>
				<path d="M0 595.28 L184.25 595.28 L184.25 562.76 L0 562.76 L0 595.28 Z" class="st11"/>
			</g>
			<g id="shape66-61" transform="translate(0,-32.5112)">
				<title>Sheet.66</title>
				<path d="M0 595.28 L184.25 595.28 L184.25 552.37 L0 552.37 L0 595.28 Z" class="st12"/>
			</g>
			<g id="shape67-63" transform="translate(0,-59.4149)">
				<title>Sheet.67</title>
				<desc>&#60;&#60;Enumeration&#62;&#62;</desc>
				<text x="4" y="592.27" class="st13">&#60;&#60;Enumeration&#62;&#62;</text>			</g>
			<g id="shape68-65" transform="translate(175.748,-75.4186)">
				<title>Sheet.68</title>
				<desc>parameter</desc>
			</g>
			<g id="shape64-66">
				<text x="4" y="550.66" class="st14">EnumName</text>			</g>
		</g>
		<g id="shape69-68" transform="translate(378.425,-289.498)">
			<title>Member</title>
			<desc>-memberName</desc>
			<rect x="0" y="583.272" width="178.583" height="12.0036" class="st15"/>
			<rect x="0" y="583.272" width="178.583" height="12.0036" class="st16"/>
			<text x="8.5" y="592.27" class="st17">-memberName</text>		</g>
		<g id="shape70-72" transform="translate(378.425,-286.664)">
			<title>Separator</title>
			<path d="M0 593.86 L178.58 593.86 L0 593.86 Z" class="st18"/>
			<path d="M0 593.86 L178.58 593.86" class="st19"/>
		</g>
		<g id="shape71-75" transform="translate(378.425,-274.66)">
			<title>Member.71</title>
			<desc>-memberName</desc>
			<rect x="0" y="583.272" width="178.583" height="12.0036" class="st15"/>
			<rect x="0" y="583.272" width="178.583" height="12.0036" class="st16"/>
			<text x="8.5" y="592.27" class="st17">-memberName</text>		</g>
		<g id="group77-79" transform="translate(640.63,-470.251)">
			<title>Interface</title>
			<desc>InterfaceName</desc>
			<g id="shape78-80">
				<title>Sheet.78</title>
				<path d="M0 595.28 L184.25 595.28 L184.25 562.76 L0 562.76 L0 595.28 Z" class="st11"/>
			</g>
			<g id="shape79-82" transform="translate(0,-32.5112)">
				<title>Sheet.79</title>
				<path d="M0 595.28 L184.25 595.28 L184.25 552.37 L0 552.37 L0 595.28 Z" class="st12"/>
			</g>
			<g id="shape80-84" transform="translate(0,-59.4149)">
				<title>Sheet.80</title>
				<desc>&#60;&#60;Interface&#62;&#62;</desc>
				<text x="4" y="592.27" class="st13">&#60;&#60;Interface&#62;&#62;</text>			</g>
			<g id="shape81-86" transform="translate(175.748,-75.4186)">
				<title>Sheet.81</title>
				<desc>parameter</desc>
			</g>
			<g id="shape77-87">
				<text x="4" y="550.66" class="st14">InterfaceName</text>			</g>
		</g>
		<g id="shape82-89" transform="translate(643.465,-487.924)">
			<title>Member.82</title>
			<desc>-memberName</desc>
			<rect x="0" y="583.272" width="178.583" height="12.0036" class="st15"/>
			<rect x="0" y="583.272" width="178.583" height="12.0036" class="st16"/>
			<text x="8.5" y="592.27" class="st17">-memberName</text>		</g>
		<g id="shape83-93" transform="translate(643.465,-485.089)">
			<title>Separator.83</title>
			<path d="M0 593.86 L178.58 593.86 L0 593.86 Z" class="st18"/>
			<path d="M0 593.86 L178.58 593.86" class="st19"/>
		</g>
		<g id="shape84-96" transform="translate(643.465,-473.085)">
			<title>Member.84</title>
			<desc>-memberName</desc>
			<rect x="0" y="583.272" width="178.583" height="12.0036" class="st15"/>
			<rect x="0" y="583.272" width="178.583" height="12.0036" class="st16"/>
			<text x="8.5" y="592.27" class="st17">-memberName</text>		</g>
		<g id="group61-100" transform="translate(396.85,-510.236)">
			<title>Note</title>
			<g id="shape61-101">
				<path d="M0 595.28 L70.87 595.28 L70.87 578.27 L62.36 569.76 L0 569.76 L0 595.28 Z" class="st20"/>
				<path d="M28.62 595.28 L17.72 615.69" class="st21"/>
				<path d="M0 595.28 L70.87 595.28 L70.87 578.27 L62.36 569.76 L0 569.76 L0 595.28" class="st21"/>
			</g>
			<g id="shape62-105" transform="translate(62.3622,-17.0079)">
				<title>Sheet.62</title>
				<path d="M0 595.28 L8.5 595.28 L8.5 596.13 L8.5 595.28 L0 586.77 L-0.85 586.77 L0 586.77 L0 595.28 Z" class="st22"/>
			</g>
		</g>
	</g>
</svg>
