<?xml version="1.0" encoding="UTF-8" standalone="no"?>
<!DOCTYPE svg PUBLIC "-//W3C//DTD SVG 1.1//EN" "http://www.w3.org/Graphics/SVG/1.1/DTD/svg11.dtd">
<!-- Generated by Microsoft Visio, SVG Export Drawing1.svg Page-1 -->
<svg xmlns="http://www.w3.org/2000/svg" xmlns:xlink="http://www.w3.org/1999/xlink" xmlns:ev="http://www.w3.org/2001/xml-events"
		width="11.6929in" height="8.26772in" viewBox="0 0 841.89 595.276" xml:space="preserve" color-interpolation-filters="sRGB"
		class="st12">
	<style classMemberType="text/css">
	<![CDATA[
		.st1 {fill:#f2f2f2;stroke:#000000;stroke-linecap:round;stroke-linejoin:round;stroke-width:0.75}
		.st2 {fill:#ffffff;stroke:#000000;stroke-linecap:round;stroke-linejoin:round;stroke-width:0.75}
		.st3 {fill:#000000;font-family:Calibri;font-size:1.00001em}
		.st4 {fill:#ffffff;fill-opacity:0}
		.st5 {stroke:#000000;stroke-linecap:round;stroke-linejoin:round;stroke-width:0.75;visibility:hidden}
		.st6 {fill:#000000;font-family:Calibri;font-size:0.833336em}
		.st7 {fill:#ffffff}
		.st8 {stroke:#000000;stroke-dasharray:0.475276,0.237638;stroke-linecap:butt;stroke-width:0.237638}
		.st9 {marker-end:url(#mrkr14-92);stroke:#000000;stroke-linecap:round;stroke-linejoin:round;stroke-width:0.237638}
		.st10 {fill:#000000;fill-opacity:1;stroke:#000000;stroke-opacity:1;stroke-width:0.086174404659928}
		.st11 {marker-start:url(#mrkr22-99);stroke:#000000;stroke-linecap:round;stroke-linejoin:round;stroke-width:0.237638}
		.st12 {fill:none;fill-rule:evenodd;font-size:12px;overflow:visible;stroke-linecap:square;stroke-miterlimit:3}
	]]>
	</style>

	<defs id="Markers">
		<g id="lend14">
			<path d="M 3 -1 L 0 0 L 3 1 L 3 -1 " style="stroke-linecap:round;stroke-linejoin:round;fill:none"/>
		</g>
		<marker id="mrkr14-92" class="st10" refX="-34.813121272366" orient="auto" markerUnits="strokeWidth" overflow="visible">
			<use xlink:href="#lend14" transform="scale(-11.604373757455,-11.604373757455) "/>
		</marker>
		<g id="lend22">
			<path d="M 0 0 L 2.25 -1.125 L 4.5 0 L 2.25 1.125 L 0 0 " style="stroke-linecap:round;stroke-linejoin:round;fill:none"/>
		</g>
		<marker id="mrkr22-99" class="st10" refX="50.704771371769" orient="auto" markerUnits="strokeWidth" overflow="visible">
			<use xlink:href="#lend22" transform="scale(11.604373757455) "/>
		</marker>
	</defs>
	<g>
		<title>Page-1</title>
		<g id="group1-1" transform="translate(48.189,-393.39)">
			<title>Class</title>
			<desc>Person</desc>
			<g id="shape2-2">
				<title>Sheet.2</title>
				<path d="M0 595.28 L206.93 595.28 L206.93 502.75 L0 502.75 L0 595.28 Z" class="st1"/>
			</g>
			<g id="shape3-4" transform="translate(0,-92.5294)">
				<title>Sheet.3</title>
				<path d="M0 595.28 L206.93 595.28 L206.93 563.87 L0 563.87 L0 595.28 Z" class="st2"/>
			</g>
			<g id="shape5-6" transform="translate(198.425,-123.933)">
				<title>Sheet.5</title>
				<desc>parameter</desc>
			</g>
			<g id="shape1-7">
				<text x="4" y="490.64" class="st3">Person</text>			</g>
		</g>
		<g id="shape6-9" transform="translate(51.0236,-471.081)">
			<title>Member</title>
			<desc>- firstName : String</desc>
			<rect x="0" y="583.272" width="201.26" height="12.0036" class="st4"/>
			<rect x="0" y="583.272" width="201.26" height="12.0036" class="st5"/>
			<text x="8.5" y="592.27" class="st6">- firstName : String</text>		</g>
		<g id="shape7-13" transform="translate(51.0236,-456.243)">
			<title>Separator</title>
			<path d="M0 593.86 L201.26 593.86 L0 593.86 Z" class="st7"/>
			<path d="M0 593.86 L201.26 593.86" class="st8"/>
		</g>
		<g id="shape8-16" transform="translate(51.0236,-444.239)">
			<title>Member.8</title>
			<desc>+ Person( firstName: String, lastName : String )</desc>
			<rect x="0" y="583.272" width="201.26" height="12.0036" class="st4"/>
			<rect x="0" y="583.272" width="201.26" height="12.0036" class="st5"/>
			<text x="8.5" y="592.27" class="st6">+ Person( firstName: String, lastName : String )</text>		</g>
		<g id="group9-20" transform="translate(325.984,-275.799)">
			<title>Class.9</title>
			<desc>Lesson</desc>
			<g id="shape10-21">
				<title>Sheet.10</title>
				<path d="M0 595.28 L184.25 595.28 L184.25 538.76 L0 538.76 L0 595.28 Z" class="st1"/>
			</g>
			<g id="shape11-23" transform="translate(0,-56.5185)">
				<title>Sheet.11</title>
				<path d="M0 595.28 L184.25 595.28 L184.25 563.87 L0 563.87 L0 595.28 Z" class="st2"/>
			</g>
			<g id="shape13-25" transform="translate(175.748,-87.9222)">
				<title>Sheet.13</title>
				<desc>parameter</desc>
			</g>
			<g id="shape9-26">
				<text x="4" y="526.66" class="st3">Lesson</text>			</g>
		</g>
		<g id="shape14-28" transform="translate(328.819,-305.475)">
			<title>Member.14</title>
			<desc>- attendees : Student[]</desc>
			<rect x="0" y="583.272" width="178.583" height="12.0036" class="st4"/>
			<rect x="0" y="583.272" width="178.583" height="12.0036" class="st5"/>
			<text x="8.5" y="592.27" class="st6">- attendees : Student[]</text>		</g>
		<g id="shape15-32" transform="translate(328.819,-302.641)">
			<title>Separator.15</title>
			<path d="M0 593.86 L178.58 593.86 L0 593.86 Z" class="st7"/>
			<path d="M0 593.86 L178.58 593.86" class="st8"/>
		</g>
		<g id="shape16-35" transform="translate(328.819,-290.637)">
			<title>Member.16</title>
			<desc>+ getType() : String</desc>
			<rect x="0" y="583.272" width="178.583" height="12.0036" class="st4"/>
			<rect x="0" y="583.272" width="178.583" height="12.0036" class="st5"/>
			<text x="8.5" y="592.27" class="st6">+ getType() : String</text>		</g>
		<g id="group17-39" transform="translate(59.5276,-151.69)">
			<title>Class.17</title>
			<desc>Student</desc>
			<g id="shape18-40">
				<title>Sheet.18</title>
				<path d="M0 595.28 L184.25 595.28 L184.25 550.76 L0 550.76 L0 595.28 Z" class="st1"/>
			</g>
			<g id="shape19-42" transform="translate(0,-44.5148)">
				<title>Sheet.19</title>
				<path d="M0 595.28 L184.25 595.28 L184.25 563.87 L0 563.87 L0 595.28 Z" class="st2"/>
			</g>
			<g id="shape21-44" transform="translate(175.748,-75.9186)">
				<title>Sheet.21</title>
				<desc>parameter</desc>
			</g>
			<g id="shape17-45">
				<text x="4" y="538.66" class="st3">Student</text>			</g>
		</g>
		<g id="shape22-47" transform="translate(62.3622,-181.366)">
			<title>Member.22</title>
			<desc>- studentID : int</desc>
			<rect x="0" y="583.272" width="178.583" height="12.0036" class="st4"/>
			<rect x="0" y="583.272" width="178.583" height="12.0036" class="st5"/>
			<text x="8.5" y="592.27" class="st6">- studentID : int</text>		</g>
		<g id="shape23-51" transform="translate(62.3622,-178.532)">
			<title>Separator.23</title>
			<path d="M0 593.86 L178.58 593.86 L0 593.86 Z" class="st7"/>
			<path d="M0 593.86 L178.58 593.86" class="st8"/>
		</g>
		<g id="shape24-54" transform="translate(62.3622,-166.528)">
			<title>Member.24</title>
			<desc>+ getStudentID() : int</desc>
			<rect x="0" y="583.272" width="178.583" height="12.0036" class="st4"/>
			<rect x="0" y="583.272" width="178.583" height="12.0036" class="st5"/>
			<text x="8.5" y="592.27" class="st6">+ getStudentID() : int</text>		</g>
		<g id="shape26-58" transform="translate(51.0236,-420.232)">
			<title>Member.26</title>
			<desc>+ setFirstName( firstName : String ) : void</desc>
			<rect x="0" y="583.272" width="201.26" height="12.0036" class="st4"/>
			<rect x="0" y="583.272" width="201.26" height="12.0036" class="st5"/>
			<text x="8.5" y="592.27" class="st6">+ setFirstName(  firstName : String ) : void</text>		</g>
		<g id="shape28-62" transform="translate(51.0236,-432.235)">
			<title>Member.28</title>
			<desc>+ getFirstName() : String</desc>
			<rect x="0" y="583.272" width="201.26" height="12.0036" class="st4"/>
			<rect x="0" y="583.272" width="201.26" height="12.0036" class="st5"/>
			<text x="8.5" y="592.27" class="st6">+ getFirstName() : String</text>		</g>
		<g id="shape29-66" transform="translate(51.0236,-459.077)">
			<title>Member.29</title>
			<desc>- lastName : String</desc>
			<rect x="0" y="583.272" width="201.26" height="12.0036" class="st4"/>
			<rect x="0" y="583.272" width="201.26" height="12.0036" class="st5"/>
			<text x="8.5" y="592.27" class="st6">- lastName : String</text>		</g>
		<g id="shape31-70" transform="translate(51.0236,-408.228)">
			<title>Member.31</title>
			<desc>+ getLastName() : String</desc>
			<rect x="0" y="583.272" width="201.26" height="12.0036" class="st4"/>
			<rect x="0" y="583.272" width="201.26" height="12.0036" class="st5"/>
			<text x="8.5" y="592.27" class="st6">+ getLastName() : String</text>		</g>
		<g id="shape32-74" transform="translate(51.0236,-396.224)">
			<title>Member.32</title>
			<desc>+ setLastName( lastName : String ) : void</desc>
			<rect x="0" y="583.272" width="201.26" height="12.0036" class="st4"/>
			<rect x="0" y="583.272" width="201.26" height="12.0036" class="st5"/>
			<text x="8.5" y="592.27" class="st6">+ setLastName( lastName : String ) : void</text>		</g>
		<g id="shape33-78" transform="translate(328.819,-317.479)">
			<title>Member.33</title>
			<desc>- classMemberType : String</desc>
			<rect x="0" y="583.272" width="178.583" height="12.0036" class="st4"/>
			<rect x="0" y="583.272" width="178.583" height="12.0036" class="st5"/>
			<text x="8.5" y="592.27" class="st6">- classMemberType : String</text>		</g>
		<g id="shape34-82" transform="translate(62.3622,-154.524)">
			<title>Member.34</title>
			<desc>+ setStudentID( studentID : int ) : void</desc>
			<rect x="0" y="583.272" width="178.583" height="12.0036" class="st4"/>
			<rect x="0" y="583.272" width="178.583" height="12.0036" class="st5"/>
			<text x="8.5" y="592.27" class="st6">+ setStudentID( studentID : int ) : void</text>		</g>
		<g id="group35-86" transform="translate(144.567,-227.608)">
			<title>Inheritance</title>
			<g id="shape35-87">
				<path d="M7.09 595.28 L7.09 437.77" class="st9"/>
			</g>
		</g>
		<g id="group40-93" transform="translate(418.11,-275.799)">
			<title>Aggregation</title>
			<g id="shape40-94">
				<path d="M0 607.32 L0 607.68 L0 681.43 L-174.33 681.43" class="st11"/>
			</g>
		</g>
		<g id="shape45-100" transform="translate(328.819,-278.633)">
			<title>Member.45</title>
			<desc>+ getAttendees() : Student[]</desc>
			<rect x="0" y="583.272" width="178.583" height="12.0036" class="st4"/>
			<rect x="0" y="583.272" width="178.583" height="12.0036" class="st5"/>
			<text x="8.5" y="592.27" class="st6">+ getAttendees() : Student[]</text>		</g>
	</g>
</svg>
