<?xml version="1.0" encoding="UTF-8" standalone="no"?>
<!DOCTYPE svg PUBLIC "-//W3C//DTD SVG 1.1//EN" "http://www.w3.org/Graphics/SVG/1.1/DTD/svg11.dtd">
<!-- Generated by Microsoft Visio, SVG Export InterfaceandEnum.svg Page-1 -->
<svg xmlns="http://www.w3.org/2000/svg" xmlns:xlink="http://www.w3.org/1999/xlink" xmlns:ev="http://www.w3.org/2001/xml-events"
		width="11.6929in" height="8.26772in" viewBox="0 0 841.89 595.276" xml:space="preserve" color-interpolation-filters="sRGB"
		class="st13">
	<style classMemberType="text/css">
	<![CDATA[
		.st1 {fill:#f2f2f2;stroke:#ffffff;stroke-linecap:round;stroke-linejoin:round;stroke-width:0.5}
		.st2 {fill:#5b9bd5;stroke:#ffffff;stroke-linecap:round;stroke-linejoin:round;stroke-width:0.5}
		.st3 {fill:#ffffff;font-family:Calibri;font-size:0.833336em}
		.st4 {fill:#ffffff;font-family:Calibri;font-size:1.00001em}
		.st5 {fill:#5b9bd5}
		.st6 {stroke:#5592c9;stroke-dasharray:1,0.5;stroke-linecap:butt;stroke-width:0.5}
		.st7 {fill:#5b9bd5;fill-opacity:0}
		.st8 {stroke:#5b9bd5;stroke-linecap:round;stroke-linejoin:round;stroke-width:0.5;visibility:hidden}
		.st9 {fill:#5b9bd5;font-family:Calibri;font-size:0.833336em}
		.st10 {marker-end:url(#mrkr14-69);stroke:#5592c9;stroke-dasharray:3.5,2.5;stroke-linecap:round;stroke-linejoin:round;stroke-width:0.5}
		.st11 {fill:#5592c9;fill-opacity:1;stroke:#5592c9;stroke-opacity:1;stroke-width:0.16556291390728}
		.st12 {marker-end:url(#mrkr12-82);stroke:#5592c9;stroke-linecap:round;stroke-linejoin:round;stroke-width:0.5}
		.st13 {fill:none;fill-rule:evenodd;font-size:12px;overflow:visible;stroke-linecap:square;stroke-miterlimit:3}
	]]>
	</style>

	<defs id="Markers">
		<g id="lend14">
			<path d="M 3 -1 L 0 0 L 3 1 L 3 -1 " style="stroke-linecap:round;stroke-linejoin:round;fill:none"/>
		</g>
		<marker id="mrkr14-69" class="st11" refX="-18.12" orient="auto" markerUnits="strokeWidth" overflow="visible">
			<use xlink:href="#lend14" transform="scale(-6.04,-6.04) "/>
		</marker>
		<g id="lend12">
			<path d="M 3 1 L 0 0 L 3 -1 " style="stroke-linecap:round;stroke-linejoin:round;fill:none"/>
		</g>
		<marker id="mrkr12-82" class="st11" orient="auto" markerUnits="strokeWidth" overflow="visible">
			<use xlink:href="#lend12" transform="scale(-6.04,-6.04) "/>
		</marker>
	</defs>
	<g>
		<title>Page-1</title>
		<g id="group1-1" transform="translate(297.638,-457.677)">
			<title>Interface</title>
			<desc>IMessenger</desc>
			<g id="shape2-2">
				<title>Sheet.2</title>
				<path d="M0 595.28 L238.11 595.28 L238.11 574.77 L0 574.77 L0 595.28 Z" class="st1"/>
			</g>
			<g id="shape3-4" transform="translate(0,-20.5076)">
				<title>Sheet.3</title>
				<path d="M0 595.28 L238.11 595.28 L238.11 552.37 L0 552.37 L0 595.28 Z" class="st2"/>
			</g>
			<g id="shape4-6" transform="translate(0,-47.4113)">
				<title>Sheet.4</title>
				<desc>&#60;&#60;Interface&#62;&#62;</desc>
				<text x="4" y="592.27" class="st3">&#60;&#60;Interface&#62;&#62;</text>			</g>
			<g id="shape5-8" transform="translate(229.606,-63.4149)">
				<title>Sheet.5</title>
				<desc>parameter</desc>
			</g>
			<g id="shape1-9">
				<text x="4" y="562.67" class="st4">IMessenger</text>			</g>
		</g>
		<g id="shape7-11" transform="translate(300.472,-472.515)">
			<title>Separator</title>
			<path d="M0 593.86 L232.44 593.86 L0 593.86 Z" class="st5"/>
			<path d="M0 593.86 L232.44 593.86" class="st6"/>
		</g>
		<g id="shape8-14" transform="translate(300.472,-460.512)">
			<title>Member.8</title>
			<desc>+ sendMessage( id : int, message : String ) : void</desc>
			<rect x="0" y="583.272" width="232.441" height="12.0036" class="st7"/>
			<rect x="0" y="583.272" width="232.441" height="12.0036" class="st8"/>
			<text x="8.5" y="592.27" class="st9">+ sendMessage( id : int, message : String ) : void </text>		</g>
		<g id="group9-18" transform="translate(109.134,-314.202)">
			<title>Class</title>
			<desc>StdOutMessenger</desc>
			<g id="shape10-19">
				<title>Sheet.10</title>
				<path d="M0 595.28 L222.52 595.28 L222.52 574.77 L0 574.77 L0 595.28 Z" class="st1"/>
			</g>
			<g id="shape11-21" transform="translate(0,-20.5076)">
				<title>Sheet.11</title>
				<path d="M0 595.28 L222.52 595.28 L222.52 563.87 L0 563.87 L0 595.28 Z" class="st2"/>
			</g>
			<g id="shape13-23" transform="translate(214.016,-51.9113)">
				<title>Sheet.13</title>
				<desc>parameter</desc>
			</g>
			<g id="shape9-24">
				<text x="4" y="562.67" class="st4">StdOutMessenger</text>			</g>
		</g>
		<g id="shape15-26" transform="translate(111.968,-329.04)">
			<title>Separator.15</title>
			<path d="M0 593.86 L216.85 593.86 L0 593.86 Z" class="st5"/>
			<path d="M0 593.86 L216.85 593.86" class="st6"/>
		</g>
		<g id="shape16-29" transform="translate(111.968,-317.036)">
			<title>Member.16</title>
			<desc>+ sendMessage( id : int, message : String ) : void</desc>
			<rect x="0" y="583.272" width="216.85" height="12.0036" class="st7"/>
			<rect x="0" y="583.272" width="216.85" height="12.0036" class="st8"/>
			<text x="8.5" y="592.27" class="st9">+ sendMessage( id : int, message : String ) : void</text>		</g>
		<g id="group17-33" transform="translate(128.268,-148.374)">
			<title>Class.17</title>
			<desc>Sender</desc>
			<g id="shape18-34">
				<title>Sheet.18</title>
				<path d="M0 595.28 L184.25 595.28 L184.25 574.77 L0 574.77 L0 595.28 Z" class="st1"/>
			</g>
			<g id="shape19-36" transform="translate(0,-20.5076)">
				<title>Sheet.19</title>
				<path d="M0 595.28 L184.25 595.28 L184.25 563.87 L0 563.87 L0 595.28 Z" class="st2"/>
			</g>
			<g id="shape21-38" transform="translate(175.748,-51.9113)">
				<title>Sheet.21</title>
				<desc>parameter</desc>
			</g>
			<g id="shape17-39">
				<text x="4" y="562.67" class="st4">Sender</text>			</g>
		</g>
		<g id="shape23-41" transform="translate(131.102,-163.212)">
			<title>Separator.23</title>
			<path d="M0 593.86 L178.58 593.86 L0 593.86 Z" class="st5"/>
			<path d="M0 593.86 L178.58 593.86" class="st6"/>
		</g>
		<g id="shape24-44" transform="translate(131.102,-151.208)">
			<title>Member.24</title>
			<desc>+ main( args[] : String ) : void</desc>
			<rect x="0" y="583.272" width="178.583" height="12.0036" class="st7"/>
			<rect x="0" y="583.272" width="178.583" height="12.0036" class="st8"/>
			<text x="8.5" y="592.27" class="st9">+ main( args[] : String ) : void</text>		</g>
		<g id="group26-48" transform="translate(456.378,-314.644)">
			<title>Class.26</title>
			<desc>MailMessenger</desc>
			<g id="shape27-49">
				<title>Sheet.27</title>
				<path d="M0 595.28 L235.28 595.28 L235.28 574.77 L0 574.77 L0 595.28 Z" class="st1"/>
			</g>
			<g id="shape28-51" transform="translate(0,-20.5076)">
				<title>Sheet.28</title>
				<path d="M0 595.28 L235.28 595.28 L235.28 563.87 L0 563.87 L0 595.28 Z" class="st2"/>
			</g>
			<g id="shape30-53" transform="translate(226.772,-51.9113)">
				<title>Sheet.30</title>
				<desc>parameter</desc>
			</g>
			<g id="shape26-54">
				<text x="4" y="562.67" class="st4">MailMessenger</text>			</g>
		</g>
		<g id="shape32-56" transform="translate(459.213,-329.483)">
			<title>Separator.32</title>
			<path d="M0 593.86 L229.61 593.86 L0 593.86 Z" class="st5"/>
			<path d="M0 593.86 L229.61 593.86" class="st6"/>
		</g>
		<g id="shape33-59" transform="translate(459.213,-317.479)">
			<title>Member.33</title>
			<desc>+ sendMessage( id : int, message : String ) : void</desc>
			<rect x="0" y="583.272" width="229.606" height="12.0036" class="st7"/>
			<rect x="0" y="583.272" width="229.606" height="12.0036" class="st8"/>
			<text x="8.5" y="592.27" class="st9">+ sendMessage( id : int, message : String ) : void </text>		</g>
		<g id="group34-63" transform="translate(220.394,-366.113)">
			<title>Interface Realization</title>
			<g id="shape34-64">
				<path d="M0 595.28 L0 559.28 L196.3 559.28 L196.3 512.77" class="st10"/>
			</g>
		</g>
		<g id="group39-70" transform="translate(574.016,-366.556)">
			<title>Interface Realization.39</title>
			<g id="shape39-71">
				<path d="M0 595.28 L0 559.28 L-157.32 559.28 L-157.32 513.21" class="st10"/>
			</g>
		</g>
		<g id="group49-76" transform="translate(213.307,-200.285)">
			<title>Directed Association</title>
			<g id="shape49-77">
				<path d="M7.09 595.28 L7.09 481.36" class="st12"/>
			</g>
		</g>
		<g id="group54-83" transform="translate(30.2362,-491.511)">
			<title>Enumeration</title>
			<desc>Server</desc>
			<g id="shape55-84">
				<title>Sheet.55</title>
				<path d="M0 595.28 L184.25 595.28 L184.25 562.76 L0 562.76 L0 595.28 Z" class="st1"/>
			</g>
			<g id="shape56-86" transform="translate(0,-32.5112)">
				<title>Sheet.56</title>
				<path d="M0 595.28 L184.25 595.28 L184.25 552.37 L0 552.37 L0 595.28 Z" class="st2"/>
			</g>
			<g id="shape57-88" transform="translate(0,-59.4149)">
				<title>Sheet.57</title>
				<desc>&#60;&#60;Enumeration&#62;&#62;</desc>
				<text x="4" y="592.27" class="st3">&#60;&#60;Enumeration&#62;&#62;</text>			</g>
			<g id="shape58-90" transform="translate(175.748,-75.4186)">
				<title>Sheet.58</title>
				<desc>parameter</desc>
			</g>
			<g id="shape54-91">
				<text x="4" y="550.66" class="st4">Server</text>			</g>
		</g>
		<g id="shape59-93" transform="translate(33.0709,-509.183)">
			<title>Member</title>
			<desc>SEVER_050</desc>
			<rect x="0" y="583.272" width="178.583" height="12.0036" class="st7"/>
			<rect x="0" y="583.272" width="178.583" height="12.0036" class="st8"/>
			<text x="8.5" y="592.27" class="st9">SEVER_050</text>		</g>
		<g id="shape60-97" transform="translate(33.0709,-494.345)">
			<title>Separator.60</title>
			<path d="M0 593.86 L178.58 593.86 L0 593.86 Z" class="st5"/>
			<path d="M0 593.86 L178.58 593.86" class="st6"/>
		</g>
		<g id="shape62-100" transform="translate(33.0709,-497.18)">
			<title>Member.62</title>
			<desc>SERVER_051</desc>
			<rect x="0" y="583.272" width="178.583" height="12.0036" class="st7"/>
			<rect x="0" y="583.272" width="178.583" height="12.0036" class="st8"/>
			<text x="8.5" y="592.27" class="st9">SERVER_051</text>		</g>
	</g>
</svg>
