<?xml version="1.0" encoding="UTF-8" standalone="no"?>
<!DOCTYPE svg PUBLIC "-//W3C//DTD SVG 1.1//EN" "http://www.w3.org/Graphics/SVG/1.1/DTD/svg11.dtd">
<!-- Generated by Microsoft Visio, SVG Export NotRequiredTitles.svg Drawing3 -->
<svg xmlns="http://www.w3.org/2000/svg" xmlns:xlink="http://www.w3.org/1999/xlink" xmlns:ev="http://www.w3.org/2001/xml-events"
		width="11.6929in" height="8.26772in" viewBox="0 0 841.889 595.276" xml:space="preserve" color-interpolation-filters="sRGB"
		class="st13">
	<style type="text/css">
	<![CDATA[
		.st1 {fill:#73ae42;stroke:#ffffff;stroke-linecap:round;stroke-linejoin:round;stroke-width:0.499999}
		.st2 {fill:none;stroke:none;stroke-linecap:butt;stroke-width:0.75}
		.st3 {fill:#ffffff;font-family:Calibri;font-size:0.833336em;font-stretch:semi-expanded}
		.st4 {fill:#ffffff;stroke:#73ae42;stroke-linecap:round;stroke-linejoin:round;stroke-width:0.499999}
		.st5 {fill:none}
		.st6 {stroke:#5592c9;stroke-linecap:round;stroke-linejoin:round;stroke-width:0.499999}
		.st7 {fill:none;stroke:#5592c9;stroke-linecap:round;stroke-linejoin:round;stroke-width:0.499999}
		.st8 {stroke:#5592c9;stroke-dasharray:3.5,2.5;stroke-linecap:round;stroke-linejoin:round;stroke-width:0.499999}
		.st9 {fill:#73ae42;stroke:none;stroke-width:0.999999}
		.st10 {stroke:#73ae42;stroke-linecap:round;stroke-linejoin:round;stroke-width:0.499999}
		.st11 {fill:none;stroke:#73ae42;stroke-linecap:round;stroke-linejoin:round;stroke-width:0.499999}
		.st12 {fill:#ffffff;stroke:#ffffff;stroke-linecap:round;stroke-linejoin:round;stroke-width:0.499999}
		.st13 {fill:none;fill-rule:evenodd;font-size:12px;overflow:visible;stroke-linecap:square;stroke-miterlimit:3}
	]]>
	</style>

	<g>
		<title>Drawing3</title>
		<g id="group2-1" transform="translate(345.4,-180)">
			<title>Package (expanded)</title>
			<g id="group3-2" transform="translate(-1.14309E-12,-141.732)">
				<title>Sheet.3</title>
				<desc>PackageName</desc>
				<g id="group4-3">
					<title>shape73-7</title>
					<g id="shape5-4">
						<title>Sheet.5</title>
						<path d="M0 595.28 L80.79 595.28 L80.79 574.02 L40.39 574.02 L0 574.02 L0 595.28 Z" class="st1"/>
					</g>
					<g id="shape6-6" transform="translate(5.99999,-4.62998)">
						<title>Sheet.6</title>
						<desc>PackageName</desc>
						<rect x="0" y="583.276" width="121" height="12" class="st2"/>
						<text x="0" y="592.28" class="st3">PackageName</text>					</g>
				</g>
			</g>
			<g id="group7-9">
				<title>Sheet.7</title>
				<g id="shape8-10">
					<title>Sheet.8</title>
					<path d="M0 595.28 L106.3 595.28 L212.6 595.28 L212.6 453.54 L106.3 453.54 L0 453.54 L0 595.28 Z" class="st4"/>
				</g>
			</g>
		</g>
		<g id="group9-12" transform="translate(85.0393,-467.719)">
			<title>Inheritance</title>
			<g id="group10-13">
				<title>Sheet.10</title>
				<g id="shape11-14">
					<title>Sheet.11</title>
					<path d="M0 524.42 L0 595.28 L61.81 595.28 L0 524.42 Z" class="st5"/>
					<path d="M0 524.42 L0 595.28 L61.81 595.28" class="st6"/>
				</g>
				<g id="group12-17" transform="translate(61.8099,3.02)">
					<title>mrkr14-21</title>
					<g id="shape13-18" transform="translate(9.05999,1184.51) rotate(180)">
						<title>Sheet.13</title>
						<path d="M9.06 589.24 L0 592.26 L9.06 595.28 L9.06 589.24 Z" class="st7"/>
					</g>
				</g>
			</g>
		</g>
		<g id="group14-20" transform="translate(85.0393,-368.506)">
			<title>Association</title>
			<g id="shape15-21">
				<title>Sheet.15</title>
				<path d="M0 524.42 L0 595.28 L73.7 595.28 L0 524.42 Z" class="st5"/>
				<path d="M0 524.42 L0 595.28 L73.7 595.28" class="st6"/>
			</g>
		</g>
		<g id="group16-24" transform="translate(85.0393,-261.139)">
			<title>Aggregation</title>
			<g id="shape17-25">
				<title>Sheet.17</title>
				<path d="M0 534.81 L0 535.17 L0 595.28 L70.87 595.28" class="st6"/>
				<path d="M0 508.35 L6.79 521.94 L0 535.53 L-6.79 521.94 L0 508.35 Z" class="st7"/>
			</g>
		</g>
		<g id="group18-29" transform="translate(85.0393,-155.908)">
			<title>Composition</title>
			<g id="shape19-30">
				<title>Sheet.19</title>
				<path d="M0 524.42 L0 595.28 L73.7 595.28 L0 524.42 Z" class="st5"/>
				<path d="M0 524.42 L0 595.28 L73.7 595.28" class="st6"/>
			</g>
		</g>
		<g id="group20-33" transform="translate(217.913,-141.734)">
			<title>Dependency</title>
			<g id="group21-34">
				<title>Sheet.21</title>
				<g id="shape22-35">
					<title>Sheet.22</title>
					<path d="M0 524.42 L0 595.28 L70.87 595.28 L0 524.42 Z" class="st5"/>
					<path d="M0 524.42 L0 595.28 L70.87 595.28" class="st8"/>
				</g>
				<g id="group23-38" transform="translate(61.8099,3.02)">
					<title>mrkr12-43</title>
					<g id="shape24-39" transform="translate(9.05999,1184.51) rotate(180)">
						<title>Sheet.24</title>
						<path d="M9.06 595.28 L0 592.26 L9.06 589.24 L9.06 595.28 Z" class="st5"/>
						<path d="M9.06 595.28 L0 592.26 L9.06 589.24" class="st6"/>
					</g>
				</g>
			</g>
		</g>
		<g id="group25-42" transform="translate(217.913,-269.293)">
			<title>Directed Association</title>
			<g id="group26-43">
				<title>Sheet.26</title>
				<g id="shape27-44">
					<title>Sheet.27</title>
					<path d="M0 524.42 L0 595.28 L70.87 595.28 L0 524.42 Z" class="st5"/>
					<path d="M0 524.42 L0 595.28 L70.87 595.28" class="st6"/>
				</g>
				<g id="group28-47" transform="translate(61.8099,3.02)">
					<title>mrkr12-43</title>
					<g id="shape29-48" transform="translate(9.05999,1184.51) rotate(180)">
						<title>Sheet.29</title>
						<path d="M9.06 595.28 L0 592.26 L9.06 589.24 L9.06 595.28 Z" class="st5"/>
						<path d="M9.06 595.28 L0 592.26 L9.06 589.24" class="st6"/>
					</g>
				</g>
			</g>
		</g>
		<g id="group30-51" transform="translate(216.732,-373.821)">
			<title>Interface Realization</title>
			<g id="group31-52">
				<title>Sheet.31</title>
				<g id="shape32-53">
					<title>Sheet.32</title>
					<path d="M0 524.42 L0 595.28 L61.81 595.28 L0 524.42 Z" class="st5"/>
					<path d="M0 524.42 L0 595.28 L61.81 595.28" class="st8"/>
				</g>
				<g id="group33-56" transform="translate(61.8099,3.02)">
					<title>mrkr14-21</title>
					<g id="shape34-57" transform="translate(9.05999,1184.51) rotate(180)">
						<title>Sheet.34</title>
						<path d="M9.06 589.24 L0 592.26 L9.06 595.28 L9.06 589.24 Z" class="st7"/>
					</g>
				</g>
			</g>
		</g>
		<g id="group35-59" transform="translate(375.59,-404.22)">
			<title>Package (collapsed)</title>
			<g id="shape36-60">
				<title>Sheet.36</title>
				<rect x="0" y="561.26" width="113.386" height="34.0157" class="st1"/>
			</g>
		</g>
		<g id="group77-62" transform="translate(396.849,-489.822)">
			<title>Note</title>
			<g id="group78-63">
				<title>shape61-101</title>
				<g id="shape79-64" transform="translate(1.59872E-13,-20.41)">
					<title>Sheet.79</title>
					<path d="M0 595.28 L70.87 595.28 L70.87 578.27 L62.36 569.76 L0 569.76 L0 595.28 Z" class="st9"/>
				</g>
				<g id="shape80-66" transform="translate(17.72,0)">
					<title>Sheet.80</title>
					<path d="M10.9 574.87 L0 595.28 L10.9 574.87 Z" class="st5"/>
					<path d="M10.9 574.87 L0 595.28" class="st10"/>
				</g>
				<g id="shape81-69" transform="translate(1.59872E-13,-20.41)">
					<title>Sheet.81</title>
					<path d="M0 595.28 L70.87 595.28 L70.87 578.27 L62.36 569.76 L0 569.76 L0 595.28 Z" class="st11"/>
				</g>
			</g>
			<g id="group82-71" transform="translate(61.5121,-36.5678)">
				<title>Sheet.82</title>
				<g id="shape83-72">
					<title>Sheet.83</title>
					<path d="M0.85 594.43 L9.35 594.43 L9.35 595.28 L9.35 594.43 L0.85 585.92 L0 585.92 L0.85 585.92 L0.85 594.43
								 Z" class="st12"/>
				</g>
			</g>
		</g>
	</g>
</svg>
