<?xml version="1.0" encoding="UTF-8" standalone="no"?>
<!DOCTYPE svg PUBLIC "-//W3C//DTD SVG 1.1//EN" "http://www.w3.org/Graphics/SVG/1.1/DTD/svg11.dtd">
<!-- Generated by Microsoft Visio, SVG Export SingleLecture.svg Page-1 -->
<svg xmlns="http://www.w3.org/2000/svg" xmlns:xlink="http://www.w3.org/1999/xlink" xmlns:ev="http://www.w3.org/2001/xml-events"
		width="11.6929in" height="8.26772in" viewBox="0 0 841.89 595.276" xml:space="preserve" color-interpolation-filters="sRGB"
		class="st9">
	<style type="text/css">
	<![CDATA[
		.st1 {fill:#f2f2f2;stroke:#ffffff;stroke-linecap:round;stroke-linejoin:round;stroke-width:0.5}
		.st2 {fill:#5b9bd5;stroke:#ffffff;stroke-linecap:round;stroke-linejoin:round;stroke-width:0.5}
		.st3 {fill:#ffffff;font-family:Calibri;font-size:1.00001em}
		.st4 {fill:#5b9bd5;fill-opacity:0}
		.st5 {stroke:#5b9bd5;stroke-linecap:round;stroke-linejoin:round;stroke-width:0.5;visibility:hidden}
		.st6 {fill:#5b9bd5;font-family:Calibri;font-size:0.833336em}
		.st7 {fill:#5b9bd5}
		.st8 {stroke:#5592c9;stroke-dasharray:1,0.5;stroke-linecap:butt;stroke-width:0.5}
		.st9 {fill:none;fill-rule:evenodd;font-size:12px;overflow:visible;stroke-linecap:square;stroke-miterlimit:3}
	]]>
	</style>

	<g>
		<title>Page-1</title>
		<g id="group1-1" transform="translate(110.551,-342.009)">
			<title>Class</title>
			<desc>Lecture</desc>
			<g id="shape2-2">
				<title>Sheet.2</title>
				<path d="M0 595.28 L395.43 595.28 L395.43 454.73 L0 454.73 L0 595.28 Z" class="st1"/>
			</g>
			<g id="shape3-4" transform="translate(0,-140.544)">
				<title>Sheet.3</title>
				<path d="M0 595.28 L395.43 595.28 L395.43 563.87 L0 563.87 L0 595.28 Z" class="st2"/>
			</g>
			<g id="shape5-6" transform="translate(386.929,-171.948)">
				<title>Sheet.5</title>
				<desc>parameter</desc>
			</g>
			<g id="shape1-7">
				<text x="4" y="442.63" class="st3">Lecture</text>			</g>
		</g>
		<g id="shape6-9" transform="translate(113.386,-467.715)">
			<title>Member</title>
			<desc>- attendees : List&#60;Student&#62;</desc>
			<rect x="0" y="583.272" width="389.764" height="12.0036" class="st4"/>
			<rect x="0" y="583.272" width="389.764" height="12.0036" class="st5"/>
			<text x="8.5" y="592.27" class="st6">- attendees : List&#60;Student&#62;</text>		</g>
		<g id="shape7-13" transform="translate(113.386,-440.873)">
			<title>Separator</title>
			<path d="M0 593.86 L389.76 593.86 L0 593.86 Z" class="st7"/>
			<path d="M0 593.86 L389.76 593.86" class="st8"/>
		</g>
		<g id="shape8-16" transform="translate(113.386,-428.87)">
			<title>Member.8</title>
			<desc># Lecture()</desc>
			<rect x="0" y="583.272" width="389.764" height="12.0036" class="st4"/>
			<rect x="0" y="583.272" width="389.764" height="12.0036" class="st5"/>
			<text x="8.5" y="592.27" class="st6"># Lecture()</text>		</g>
		<g id="shape9-20" transform="translate(113.386,-455.712)">
			<title>Member.9</title>
			<desc>- lecturer : String</desc>
			<rect x="0" y="583.272" width="389.764" height="12.0036" class="st4"/>
			<rect x="0" y="583.272" width="389.764" height="12.0036" class="st5"/>
			<text x="8.5" y="592.27" class="st6">- lecturer : String</text>		</g>
		<g id="shape10-24" transform="translate(113.386,-443.708)">
			<title>Member.10</title>
			<desc>- roomNum : int</desc>
			<rect x="0" y="583.272" width="389.764" height="12.0036" class="st4"/>
			<rect x="0" y="583.272" width="389.764" height="12.0036" class="st5"/>
			<text x="8.5" y="592.27" class="st6">- roomNum : int</text>		</g>
		<g id="shape11-28" transform="translate(113.386,-416.866)">
			<title>Member.11</title>
			<desc>+ Lecture( roomNum : int, lecturer : String, attendees : List...</desc>
			<rect x="0" y="583.272" width="389.764" height="12.0036" class="st4"/>
			<rect x="0" y="583.272" width="389.764" height="12.0036" class="st5"/>
			<text x="8.5" y="592.27" class="st6">+ Lecture( roomNum : int, lecturer : String, attendees : List&#60;Student&#62; )</text>		</g>
		<g id="shape14-32" transform="translate(113.386,-404.862)">
			<title>Member.14</title>
			<desc>+ getAttendees() : List&#60;Student&#62;</desc>
			<rect x="0" y="583.272" width="389.764" height="12.0036" class="st4"/>
			<rect x="0" y="583.272" width="389.764" height="12.0036" class="st5"/>
			<text x="8.5" y="592.27" class="st6">+ getAttendees() : List&#60;Student&#62;</text>		</g>
		<g id="shape15-36" transform="translate(113.386,-392.859)">
			<title>Member.15</title>
			<desc>+ setAttendees( studentList : List&#60;Student&#62; ) : void</desc>
			<rect x="0" y="583.272" width="389.764" height="12.0036" class="st4"/>
			<rect x="0" y="583.272" width="389.764" height="12.0036" class="st5"/>
			<text x="8.5" y="592.27" class="st6">+ setAttendees( attendeesList : List&#60;Student&#62; ) : void</text>		</g>
		<g id="shape16-40" transform="translate(113.386,-380.855)">
			<title>Member.16</title>
			<desc>+ getLecturer() : String</desc>
			<rect x="0" y="583.272" width="389.764" height="12.0036" class="st4"/>
			<rect x="0" y="583.272" width="389.764" height="12.0036" class="st5"/>
			<text x="8.5" y="592.27" class="st6">+ getLecturer() : String</text>		</g>
		<g id="shape17-44" transform="translate(113.386,-356.848)">
			<title>Member.17</title>
			<desc>+ getRoomNum() : int</desc>
			<rect x="0" y="583.272" width="389.764" height="12.0036" class="st4"/>
			<rect x="0" y="583.272" width="389.764" height="12.0036" class="st5"/>
			<text x="8.5" y="592.27" class="st6">+ getRoomNum() : int</text>		</g>
		<g id="shape18-48" transform="translate(113.386,-368.851)">
			<title>Member.18</title>
			<desc>+ setLecturer( lecturer : String ) : void</desc>
			<rect x="0" y="583.272" width="389.764" height="12.0036" class="st4"/>
			<rect x="0" y="583.272" width="389.764" height="12.0036" class="st5"/>
			<text x="8.5" y="592.27" class="st6">+ setLecturer( lecturer : String ) : void</text>		</g>
		<g id="shape19-52" transform="translate(113.386,-344.844)">
			<title>Member.19</title>
			<desc>+ setRoomNum( roomNum : int ) : void</desc>
			<rect x="0" y="583.272" width="389.764" height="12.0036" class="st4"/>
			<rect x="0" y="583.272" width="389.764" height="12.0036" class="st5"/>
			<text x="8.5" y="592.27" class="st6">+ setRoomNum( roomNum : int ) : void</text>		</g>
	</g>
</svg>
