<?xml version="1.0" encoding="UTF-8" standalone="no"?>
<!DOCTYPE svg PUBLIC "-//W3C//DTD SVG 1.1//EN" "http://www.w3.org/Graphics/SVG/1.1/DTD/svg11.dtd">
<!-- Generated by Microsoft Visio, SVG Export DiagramToCodeSVG.svg Page-1 -->
<svg xmlns="http://www.w3.org/2000/svg" xmlns:xlink="http://www.w3.org/1999/xlink" xmlns:ev="http://www.w3.org/2001/xml-events"
		width="11.6929in" height="8.26772in" viewBox="0 0 841.89 595.276" xml:space="preserve" color-interpolation-filters="sRGB"
		class="st14">
	<style type="text/css">
	<![CDATA[
		.st1 {fill:#f2f2f2;stroke:#ffffff;stroke-linecap:round;stroke-linejoin:round;stroke-width:0.5}
		.st2 {fill:#5b9bd5;stroke:#ffffff;stroke-linecap:round;stroke-linejoin:round;stroke-width:0.5}
		.st3 {fill:#ffffff;font-family:Calibri;font-size:1.00001em}
		.st4 {fill:#5b9bd5;fill-opacity:0}
		.st5 {stroke:#5b9bd5;stroke-linecap:round;stroke-linejoin:round;stroke-width:0.5;visibility:hidden}
		.st6 {fill:#5b9bd5;font-family:Calibri;font-size:0.833336em}
		.st7 {fill:#5b9bd5}
		.st8 {stroke:#5592c9;stroke-dasharray:1,0.5;stroke-linecap:butt;stroke-width:0.5}
		.st9 {marker-end:url(#mrkr14-68);stroke:#5592c9;stroke-linecap:round;stroke-linejoin:round;stroke-width:0.5}
		.st10 {fill:#5592c9;fill-opacity:1;stroke:#5592c9;stroke-opacity:1;stroke-width:0.16556291390728}
		.st11 {marker-start:url(#mrkr22-75);stroke:#5592c9;stroke-linecap:round;stroke-linejoin:round;stroke-width:0.5}
		.st12 {fill:#ffffff;stroke:none;stroke-linecap:butt;stroke-width:7.2}
		.st13 {fill:#41719d;font-family:Calibri;font-size:0.666664em}
		.st14 {fill:none;fill-rule:evenodd;font-size:12px;overflow:visible;stroke-linecap:square;stroke-miterlimit:3}
	]]>
	</style>

	<defs id="Markers">
		<g id="lend14">
			<path d="M 3 -1 L 0 0 L 3 1 L 3 -1 " style="stroke-linecap:round;stroke-linejoin:round;fill:none"/>
		</g>
		<marker id="mrkr14-68" class="st10" refX="-18.12" orient="auto" markerUnits="strokeWidth" overflow="visible">
			<use xlink:href="#lend14" transform="scale(-6.04,-6.04) "/>
		</marker>
		<g id="lend22">
			<path d="M 0 0 L 2.25 -1.125 L 4.5 0 L 2.25 1.125 L 0 0 " style="stroke-linecap:round;stroke-linejoin:round;fill:none"/>
		</g>
		<marker id="mrkr22-75" class="st10" refX="26.46" orient="auto" markerUnits="strokeWidth" overflow="visible">
			<use xlink:href="#lend22" transform="scale(6.04) "/>
		</marker>
	</defs>
	<g>
		<title>Page-1</title>
		<g id="group1-1" transform="translate(73.1413,-399.22)">
			<title>Class</title>
			<desc>Person</desc>
			<g id="shape2-2">
				<title>Sheet.2</title>
				<path d="M0 595.28 L214.02 595.28 L214.02 502.75 L0 502.75 L0 595.28 Z" class="st1"/>
			</g>
			<g id="shape3-4" transform="translate(0,-92.5294)">
				<title>Sheet.3</title>
				<path d="M0 595.28 L214.02 595.28 L214.02 563.87 L0 563.87 L0 595.28 Z" class="st2"/>
			</g>
			<g id="shape5-6" transform="translate(205.512,-123.933)">
				<title>Sheet.5</title>
				<desc>parameter</desc>
			</g>
			<g id="shape1-7">
				<text x="4" y="490.64" class="st3">Person</text>			</g>
		</g>
		<g id="shape6-9" transform="translate(75.976,-476.911)">
			<title>Member</title>
			<desc>- firstName : String</desc>
			<rect x="0" y="583.272" width="208.346" height="12.0036" class="st4"/>
			<rect x="0" y="583.272" width="208.346" height="12.0036" class="st5"/>
			<text x="8.5" y="592.27" class="st6">- firstName : String</text>
		</g>
		<g id="shape7-13" transform="translate(75.976,-462.073)">
			<title>Separator</title>
			<path d="M0 593.86 L208.35 593.86 L0 593.86 Z" class="st7"/>
			<path d="M0 593.86 L208.35 593.86" class="st8"/>
		</g>
		<g id="shape8-16" transform="translate(75.976,-438.065)">
			<title>Member.8</title>
			<desc>+ getFirstName() : String</desc>
			<rect x="0" y="583.272" width="208.346" height="12.0036" class="st4"/>
			<rect x="0" y="583.272" width="208.346" height="12.0036" class="st5"/>
			<text x="8.5" y="592.27" class="st6">+ getFirstName(  ) : String</text>		</g>
		<g id="group9-20" transform="translate(87.874,-302.12)">
			<title>Class.9</title>
			<desc>Student</desc>
			<g id="shape10-21">
				<title>Sheet.10</title>
				<path d="M0 595.28 L184.25 595.28 L184.25 562.76 L0 562.76 L0 595.28 Z" class="st1"/>
			</g>
			<g id="shape11-23" transform="translate(0,-32.5112)">
				<title>Sheet.11</title>
				<path d="M0 595.28 L184.25 595.28 L184.25 563.87 L0 563.87 L0 595.28 Z" class="st2"/>
			</g>
			<g id="shape13-25" transform="translate(175.748,-63.9149)">
				<title>Sheet.13</title>
				<desc>parameter</desc>
			</g>
			<g id="shape9-26">
				<text x="4" y="550.66" class="st3">Student</text>			</g>
		</g>
		<g id="shape14-28" transform="translate(90.7087,-319.793)">
			<title>Member.14</title>
			<desc>- studentID : int</desc>
			<rect x="0" y="583.272" width="178.583" height="12.0036" class="st4"/>
			<rect x="0" y="583.272" width="178.583" height="12.0036" class="st5"/>
			<text x="8.5" y="592.27" class="st6">- studentID : int</text>		</g>
		<g id="shape15-32" transform="translate(90.7087,-316.959)">
			<title>Separator.15</title>
			<path d="M0 593.86 L178.58 593.86 L0 593.86 Z" class="st7"/>
			<path d="M0 593.86 L178.58 593.86" class="st8"/>
		</g>
		<g id="shape16-35" transform="translate(90.7087,-304.955)">
			<title>Member.16</title>
			<desc>+ getStudentID() : int</desc>
			<rect x="0" y="583.272" width="178.583" height="12.0036" class="st4"/>
			<rect x="0" y="583.272" width="178.583" height="12.0036" class="st5"/>
			<text x="8.5" y="592.27" class="st6">+ getStudentID() : int</text>		</g>
		<g id="group17-39" transform="translate(354.331,-295.613)">
			<title>Class.17</title>
			<desc>Lesson</desc>
			<g id="shape18-40">
				<title>Sheet.18</title>
				<path d="M0 595.28 L184.25 595.28 L184.25 550.76 L0 550.76 L0 595.28 Z" class="st1"/>
			</g>
			<g id="shape19-42" transform="translate(0,-44.5148)">
				<title>Sheet.19</title>
				<path d="M0 595.28 L184.25 595.28 L184.25 563.87 L0 563.87 L0 595.28 Z" class="st2"/>
			</g>
			<g id="shape21-44" transform="translate(175.748,-75.9186)">
				<title>Sheet.21</title>
				<desc>parameter</desc>
			</g>
			<g id="shape17-45">
				<text x="4" y="538.66" class="st3">Lesson</text>			</g>
		</g>
		<g id="shape22-47" transform="translate(357.165,-325.29)">
			<title>Member.22</title>
			<desc>- type : String</desc>
			<rect x="0" y="583.272" width="178.583" height="12.0036" class="st4"/>
			<rect x="0" y="583.272" width="178.583" height="12.0036" class="st5"/>
			<text x="8.5" y="592.27" class="st6">- type : String</text>		</g>
		<g id="shape23-51" transform="translate(357.165,-310.451)">
			<title>Separator.23</title>
			<path d="M0 593.86 L178.58 593.86 L0 593.86 Z" class="st7"/>
			<path d="M0 593.86 L178.58 593.86" class="st8"/>
		</g>
		<g id="shape24-54" transform="translate(357.165,-298.448)">
			<title>Member.24</title>
			<desc>+ getType() : String</desc>
			<rect x="0" y="583.272" width="178.583" height="12.0036" class="st4"/>
			<rect x="0" y="583.272" width="178.583" height="12.0036" class="st5"/>
			<text x="8.5" y="592.27" class="st6">+ getType() : String</text>		</g>
		<g id="shape26-58" transform="translate(357.165,-313.286)">
			<title>Member.26</title>
			<desc>- attendees : Student[]</desc>
			<rect x="0" y="583.272" width="178.583" height="12.0036" class="st4"/>
			<rect x="0" y="583.272" width="178.583" height="12.0036" class="st5"/>
			<text x="8.5" y="592.27" class="st6">- attendees : Student[]</text>		</g>
		<g id="group27-62" transform="translate(172.988,-366.035)">
			<title>Association</title>
			<g id="shape27-63">
				<path d="M7.01 595.28 L7.01 577.28 L7.16 577.28 L7.16 571.15" class="st9"/>
			</g>
		</g>
		<g id="group32-69" transform="translate(354.331,-326.738)">
			<title>Association.32</title>
			<desc>Attends</desc>
			<g id="shape32-70">
				<path d="M-13.23 588.44 L-13.59 588.44 L-36 588.44 L-36 587.94 L-82.2 587.94" class="st11"/>
				<rect x="-53.6013" y="583.136" width="25.5034" height="9.59985" class="st12"/>
				<text x="-53.6" y="590.34" class="st13">Attends</text>			</g>
		</g>
		<g id="shape38-78" transform="translate(75.976,-464.907)">
			<title>Member.38</title>
			<desc>- lastName : String</desc>
			<rect x="0" y="583.272" width="208.346" height="12.0036" class="st4"/>
			<rect x="0" y="583.272" width="208.346" height="12.0036" class="st5"/>
			<text x="8.5" y="592.27" class="st6">- lastName : String</text>		</g>
		<g id="shape39-82" transform="translate(75.976,-426.062)">
			<title>Member.39</title>
			<desc>+ setFirstName() : String</desc>
			<rect x="0" y="583.272" width="208.346" height="12.0036" class="st4"/>
			<rect x="0" y="583.272" width="208.346" height="12.0036" class="st5"/>
			<text x="8.5" y="592.27" class="st6">+ setFirstName( firstName : String ) : void</text>		</g>
		<g id="shape40-86" transform="translate(75.976,-414.058)">
			<title>Member.40</title>
			<desc>+ getLastName() : String</desc>
			<rect x="0" y="583.272" width="208.346" height="12.0036" class="st4"/>
			<rect x="0" y="583.272" width="208.346" height="12.0036" class="st5"/>
			<text x="8.5" y="592.27" class="st6">+ getLastName() : String</text>		</g>
		<g id="shape41-90" transform="translate(75.976,-402.054)">
			<title>Member.41</title>
			<desc>+ setLastName() : String</desc>
			<rect x="0" y="583.272" width="208.346" height="12.0036" class="st4"/>
			<rect x="0" y="583.272" width="208.346" height="12.0036" class="st5"/>
			<text x="8.5" y="592.27" class="st6">+ setLastName( lastName : String, state : boolean ) : void</text>		</g>
		<g id="shape42-94" transform="translate(75.976,-450.069)">
			<title>Member.42</title>
			<desc>+ Person(firstName : String, lastName : String)</desc>
			<rect x="0" y="583.272" width="208.346" height="12.0036" class="st4"/>
			<rect x="0" y="583.272" width="208.346" height="12.0036" class="st5"/>
			<text x="8.5" y="592.27" class="st6">+ Person(firstName : String, lastName : String)</text>		</g>
	</g>
</svg>
