<?xml version="1.0" encoding="UTF-8" standalone="no"?>
<!DOCTYPE svg PUBLIC "-//W3C//DTD SVG 1.1//EN" "http://www.w3.org/Graphics/SVG/1.1/DTD/svg11.dtd">
<!-- Generated by Microsoft Visio, SVG Export Sample.svg Page-1 -->
<svg xmlns="http://www.w3.org/2000/svg" xmlns:xlink="http://www.w3.org/1999/xlink" xmlns:ev="http://www.w3.org/2001/xml-events"
		width="11.6929in" height="8.26772in" viewBox="0 0 841.89 595.276" xml:space="preserve" color-interpolation-filters="sRGB"
		class="st15">
	<style type="text/css">
	<![CDATA[
		.st1 {fill:#f2f2f2;stroke:#007aad;stroke-linecap:round;stroke-linejoin:round;stroke-width:1}
		.st2 {fill:url(#grad5-7);stroke:#007aad;stroke-linecap:round;stroke-linejoin:round;stroke-width:1}
		.st3 {fill:#ffffff;font-family:Calibri;font-size:1.00001em}
		.st4 {fill:#0083b9;fill-opacity:0}
		.st5 {stroke:#007aad;stroke-linecap:round;stroke-linejoin:round;stroke-width:1;visibility:hidden}
		.st6 {fill:#007aad;font-family:Calibri;font-size:0.833336em}
		.st7 {fill:#0083b9}
		.st8 {stroke:#007bae;stroke-dasharray:1,0.5;stroke-linecap:butt;stroke-width:0.5}
		.st9 {font-size:1em}
		.st10 {marker-end:url(#mrkr14-69);stroke:#007bae;stroke-linecap:round;stroke-linejoin:round;stroke-width:0.5}
		.st11 {fill:#007bae;fill-opacity:1;stroke:#007bae;stroke-opacity:1;stroke-width:0.16556291390728}
		.st12 {marker-start:url(#mrkr22-76);stroke:#007bae;stroke-linecap:round;stroke-linejoin:round;stroke-width:0.5}
		.st13 {fill:#ffffff;stroke:none;stroke-linecap:butt;stroke-width:7.2}
		.st14 {fill:#005f88;font-family:Calibri;font-size:0.666664em}
		.st15 {fill:none;fill-rule:evenodd;font-size:12px;overflow:visible;stroke-linecap:square;stroke-miterlimit:3}
	]]>
	</style>

	<defs id="Patterns_And_Gradients">
		<radialGradient id="grad5-7" cx="0.5" cy="1" r="1.1">
			<stop offset="0" stop-color="#0083b9" stop-opacity="1"/>
			<stop offset="0.54" stop-color="#007aad" stop-opacity="1"/>
			<stop offset="0.93" stop-color="#00709f" stop-opacity="1"/>
		</radialGradient>
	</defs>
	<defs id="Markers">
		<g id="lend14">
			<path d="M 3 -1 L 0 0 L 3 1 L 3 -1 " style="stroke-linecap:round;stroke-linejoin:round;fill:none"/>
		</g>
		<marker id="mrkr14-69" class="st11" refX="-18.12" orient="auto" markerUnits="strokeWidth" overflow="visible">
			<use xlink:href="#lend14" transform="scale(-6.04,-6.04) "/>
		</marker>
		<g id="lend22">
			<path d="M 0 0 L 2.25 -1.125 L 4.5 0 L 2.25 1.125 L 0 0 " style="stroke-linecap:round;stroke-linejoin:round;fill:none"/>
		</g>
		<marker id="mrkr22-76" class="st11" refX="26.46" orient="auto" markerUnits="strokeWidth" overflow="visible">
			<use xlink:href="#lend22" transform="scale(6.04) "/>
		</marker>
	</defs>
	<g>
		<title>Page-1</title>
		<g id="group1-1" transform="translate(56.6929,-474.668)">
			<title>Class</title>
			<desc>Person</desc>
			<g id="shape2-2">
				<title>Sheet.2</title>
				<path d="M0 595.28 L184.25 595.28 L184.25 562.76 L0 562.76 L0 595.28 Z" class="st1"/>
			</g>
			<g id="shape3-4" transform="translate(0,-32.5112)">
				<title>Sheet.3</title>
				<path d="M0 595.28 L184.25 595.28 L184.25 563.87 L0 563.87 L0 595.28 Z" class="st2"/>
			</g>
			<g id="shape5-8" transform="translate(175.748,-63.9149)">
				<title>Sheet.5</title>
				<desc>parameter</desc>
			</g>
			<g id="shape1-9">
				<text x="4" y="550.66" class="st3">Person</text>			</g>
		</g>
		<g id="shape6-11" transform="translate(59.5276,-492.341)">
			<title>Member</title>
			<desc>- Name : String</desc>
			<rect x="0" y="583.272" width="178.583" height="12.0036" class="st4"/>
			<rect x="0" y="583.272" width="178.583" height="12.0036" class="st5"/>
			<text x="8.5" y="592.27" class="st6">- Name : String</text>		</g>
		<g id="shape7-15" transform="translate(59.5276,-489.506)">
			<title>Separator</title>
			<path d="M0 593.86 L178.58 593.86 L0 593.86 Z" class="st7"/>
			<path d="M0 593.86 L178.58 593.86" class="st8"/>
		</g>
		<g id="shape8-18" transform="translate(59.5276,-477.502)">
			<title>Member.8</title>
			<desc>+ getName() : String</desc>
			<rect x="0" y="583.272" width="178.583" height="12.0036" class="st4"/>
			<rect x="0" y="583.272" width="178.583" height="12.0036" class="st5"/>
			<text x="8.5" y="592.27" class="st6">+ getName() : String</text>		</g>
		<g id="group9-22" transform="translate(56.6929,-349.673)">
			<title>Class.9</title>
			<desc>Student</desc>
			<g id="shape10-23">
				<title>Sheet.10</title>
				<path d="M0 595.28 L184.25 595.28 L184.25 562.76 L0 562.76 L0 595.28 Z" class="st1"/>
			</g>
			<g id="shape11-25" transform="translate(0,-32.5112)">
				<title>Sheet.11</title>
				<path d="M0 595.28 L184.25 595.28 L184.25 563.87 L0 563.87 L0 595.28 Z" class="st2"/>
			</g>
			<g id="shape13-28" transform="translate(175.748,-63.9149)">
				<title>Sheet.13</title>
				<desc>parameter</desc>
			</g>
			<g id="shape9-29">
				<text x="4" y="550.66" class="st3">Student</text>			</g>
		</g>
		<g id="shape14-31" transform="translate(59.5276,-367.345)">
			<title>Member.14</title>
			<desc>- ID : int</desc>
			<rect x="0" y="583.272" width="178.583" height="12.0036" class="st4"/>
			<rect x="0" y="583.272" width="178.583" height="12.0036" class="st5"/>
			<text x="8.5" y="592.27" class="st6">- ID : int</text>		</g>
		<g id="shape15-35" transform="translate(59.5276,-364.511)">
			<title>Separator.15</title>
			<path d="M0 593.86 L178.58 593.86 L0 593.86 Z" class="st7"/>
			<path d="M0 593.86 L178.58 593.86" class="st8"/>
		</g>
		<g id="shape16-38" transform="translate(59.5276,-352.507)">
			<title>Member.16</title>
			<desc>+ getID() : int</desc>
			<rect x="0" y="583.272" width="178.583" height="12.0036" class="st4"/>
			<rect x="0" y="583.272" width="178.583" height="12.0036" class="st5"/>
			<text x="8.5" y="592.27" class="st6">+ getID() : int</text>		</g>
		<g id="group17-42" transform="translate(56.6929,-206.354)">
			<title>Class.17</title>
			<desc>Lesson</desc>
			<g id="shape18-43">
				<title>Sheet.18</title>
				<path d="M0 595.28 L184.25 595.28 L184.25 550.76 L0 550.76 L0 595.28 Z" class="st1"/>
			</g>
			<g id="shape19-45" transform="translate(0,-44.5112)">
				<title>Sheet.19</title>
				<path d="M0 595.28 L184.25 595.28 L184.25 563.87 L0 563.87 L0 595.28 Z" class="st2"/>
			</g>
			<g id="shape21-48" transform="translate(175.748,-75.915)">
				<title>Sheet.21</title>
				<desc>parameter</desc>
			</g>
			<g id="shape17-49">
				<text x="4" y="538.66" class="st3">Lesson</text>			</g>
		</g>
		<g id="shape22-51" transform="translate(59.5276,-224.026)">
			<title>Member.22</title>
			<desc>- Type : String - Attenedes : String[]</desc>
			<rect x="0" y="571.272" width="178.583" height="24.0037" class="st4"/>
			<rect x="0" y="571.272" width="178.583" height="24.0037" class="st5"/>
			<text x="8.5" y="580.27" class="st6">- Type : String <tspan x="8.5" dy="1.2em" class="st9">-</tspan> Attenedes : String[]</text>		</g>
		<g id="shape23-56" transform="translate(59.5276,-221.192)">
			<title>Separator.23</title>
			<path d="M0 593.86 L178.58 593.86 L0 593.86 Z" class="st7"/>
			<path d="M0 593.86 L178.58 593.86" class="st8"/>
		</g>
		<g id="shape24-59" transform="translate(59.5276,-209.188)">
			<title>Member.24</title>
			<desc>+ getType() : String</desc>
			<rect x="0" y="583.272" width="178.583" height="12.0036" class="st4"/>
			<rect x="0" y="583.272" width="178.583" height="12.0036" class="st5"/>
			<text x="8.5" y="592.27" class="st6">+ getType() : String</text>		</g>
		<g id="group30-63" transform="translate(141.732,-413.587)">
			<title>Inheritance</title>
			<g id="shape30-64">
				<path d="M7.09 595.28 L7.09 543.26" class="st10"/>
			</g>
		</g>
		<g id="group35-70" transform="translate(141.732,-282.268)">
			<title>Aggregation</title>
			<desc>Attends</desc>
			<g id="shape35-71">
				<path d="M7.09 582.05 L7.09 581.69 L7.09 527.87" class="st12"/>
				<rect x="-5.66516" y="556.774" width="25.5034" height="9.59985" class="st13"/>
				<text x="-5.67" y="563.97" class="st14">Attends</text>			</g>
		</g>
	</g>
</svg>
